<svg xmlns="http://www.w3.org/2000/svg" viewBox="0 0 64 64">
  <defs>
    <linearGradient id="keycap" x1="8" y1="4" x2="56" y2="60" gradientUnits="userSpaceOnUse">
      <stop stop-color="#8fd9ff"/>
      <stop offset=".3" stop-color="#2846a4"/>
      <stop offset=".58" stop-color="#8129a7"/>
      <stop offset=".8" stop-color="#ff6426"/>
      <stop offset="1" stop-color="#172759"/>
    </linearGradient>
    <linearGradient id="shine" x1="14" y1="8" x2="49" y2="55" gradientUnits="userSpaceOnUse">
      <stop stop-color="#fff" stop-opacity=".75"/>
      <stop offset=".2" stop-color="#fff" stop-opacity=".08"/>
      <stop offset=".8" stop-color="#fff" stop-opacity=".18"/>
      <stop offset="1" stop-color="#fff" stop-opacity=".45"/>
    </linearGradient>
    <filter id="shadow" x="-20%" y="-20%" width="140%" height="150%">
      <feDropShadow dx="0" dy="3" stdDeviation="2" flood-color="#08142f" flood-opacity=".45"/>
    </filter>
  </defs>

  <rect x="5" y="4" width="54" height="55" rx="14" fill="url(#keycap)" filter="url(#shadow)"/>
  <path d="M11 21c8-10 14 11 22 1 8-10 13-7 20-13M10 39c9-12 14 8 23-1 8-9 13-8 21 1M14 53c8-9 14 3 22-5 7-7 12-3 17 2" fill="none" stroke="#ff7b2c" stroke-width="3.5" stroke-linecap="round" opacity=".9"/>
  <path d="M11 16c8 7 13-4 20 5 7 9 15-8 23 1M10 33c9 8 15-6 23 3 8 9 13-6 21 2M14 48c8 7 13-5 21 1 7 5 11-5 17-2" fill="none" stroke="#7cd9ff" stroke-width="3" stroke-linecap="round" opacity=".8"/>
  <rect x="8.5" y="7.5" width="47" height="48" rx="11" fill="none" stroke="url(#shine)" stroke-width="3"/>
  <text x="32" y="40" text-anchor="middle" fill="#fff" font-family="Arial, Helvetica, sans-serif" font-size="23" font-weight="800" letter-spacing="-2" stroke="#142657" stroke-width="1.2" paint-order="stroke">HW</text>
</svg>
